<svg width="52" height="52" viewBox="0 0 52 52" fill="none" xmlns="http://www.w3.org/2000/svg">
<path d="M4.3335 17.3342L25.4188 6.79154C25.7848 6.60856 26.2155 6.60854 26.5815 6.79154L47.6668 17.3342" stroke="white" stroke-width="3.25" stroke-linecap="round" stroke-linejoin="round"/>
<path d="M43.3332 23.834V41.1673C43.3332 43.5606 41.3931 45.5007 38.9998 45.5007H12.9998C10.6066 45.5007 8.6665 43.5606 8.6665 41.1673V23.834" stroke="white" stroke-width="3.25" stroke-linecap="round" stroke-linejoin="round"/>
<path d="M25.9998 39.0007C28.3931 39.0007 30.3332 37.0606 30.3332 34.6673C30.3332 32.274 28.3931 30.334 25.9998 30.334C23.6065 30.334 21.6665 32.274 21.6665 34.6673C21.6665 37.0606 23.6065 39.0007 25.9998 39.0007Z" stroke="white" stroke-width="3.25" stroke-linecap="round" stroke-linejoin="round"/>
<path d="M26 16.25V30.3333" stroke="white" stroke-width="3.25" stroke-linecap="round" stroke-linejoin="round"/>
<path d="M26 26H30.3333" stroke="white" stroke-width="3.25" stroke-linecap="round" stroke-linejoin="round"/>
<path d="M26 19.5H30.3333" stroke="white" stroke-width="3.25" stroke-linecap="round" stroke-linejoin="round"/>
</svg>
