<svg width="52" height="52" viewBox="0 0 52 52" fill="none" xmlns="http://www.w3.org/2000/svg">
<path d="M2.1665 43.3333V41.1667C2.1665 32.7903 8.95686 26 17.3332 26C25.7095 26 32.4998 32.7903 32.4998 41.1667V43.3333" stroke="white" stroke-width="3.25" stroke-linecap="round"/>
<path d="M28.1665 30.3333C28.1665 24.3503 33.0168 19.5 38.9998 19.5C44.9829 19.5 49.8332 24.3503 49.8332 30.3333V31.4167" stroke="white" stroke-width="3.25" stroke-linecap="round"/>
<path d="M17.3332 25.9993C22.1196 25.9993 25.9998 22.1191 25.9998 17.3327C25.9998 12.5462 22.1196 8.66602 17.3332 8.66602C12.5467 8.66602 8.6665 12.5462 8.6665 17.3327C8.6665 22.1191 12.5467 25.9993 17.3332 25.9993Z" stroke="white" stroke-width="3.25" stroke-linecap="round" stroke-linejoin="round"/>
<path d="M39 19.5C42.59 19.5 45.5 16.5898 45.5 13C45.5 9.41016 42.59 6.5 39 6.5C35.4101 6.5 32.5 9.41016 32.5 13C32.5 16.5898 35.4101 19.5 39 19.5Z" stroke="white" stroke-width="3.25" stroke-linecap="round" stroke-linejoin="round"/>
</svg>
