<svg width="52" height="52" viewBox="0 0 52 52" fill="none" xmlns="http://www.w3.org/2000/svg">
<path d="M22.7498 9.75V19.8628C22.7498 20.311 22.5189 20.7277 22.1388 20.9652L6.0275 31.0347C5.64741 31.2724 5.4165 31.689 5.4165 32.1371V34.0849C5.4165 34.9308 6.2113 35.5513 7.0318 35.3461L21.1345 31.8205C21.9551 31.6154 22.7498 32.2359 22.7498 33.0818V39.4933C22.7498 39.8684 22.588 40.225 22.3059 40.4718L17.6253 44.5673C16.6323 45.4363 17.4157 47.0609 18.7139 46.8247L25.7674 45.5423C25.921 45.5143 26.0787 45.5143 26.2323 45.5423L33.2859 46.8247C34.584 47.0609 35.3674 45.4363 34.3744 44.5673L29.6938 40.4718C29.4117 40.225 29.2498 39.8684 29.2498 39.4933V33.0818C29.2498 32.2359 30.0446 31.6154 30.8651 31.8205L44.9679 35.3461C45.7884 35.5513 46.5832 34.9308 46.5832 34.0849V32.1371C46.5832 31.689 46.3522 31.2724 45.9722 31.0347L29.8608 20.9652C29.4808 20.7277 29.2498 20.311 29.2498 19.8628V9.75C29.2498 7.95507 27.7947 6.5 25.9998 6.5C24.205 6.5 22.7498 7.95507 22.7498 9.75Z" stroke="white" stroke-width="3.25" stroke-linecap="round" stroke-linejoin="round"/>
</svg>
